<svg width="50" viewBox="0 0 50 7062" xmlns="http://www.w3.org/2000/svg">
<defs>
  <radialGradient id="gbr" cx="32%" cy="28%" r="70%"><stop offset="0%" stop-color="#2e2e2e"/><stop offset="100%" stop-color="#060606"/></radialGradient>
  <radialGradient id="gwr" cx="45%" cy="25%" r="72%"><stop offset="0%" stop-color="#fffef6"/><stop offset="75%" stop-color="#f0e8d4"/><stop offset="100%" stop-color="#e4dac0"/></radialGradient>
  <radialGradient id="ger" cx="30%" cy="22%" r="68%"><stop offset="0%" stop-color="#ffffff"/><stop offset="100%" stop-color="#cccccc"/></radialGradient>
  <radialGradient id="ghr" cx="28%" cy="22%" r="72%"><stop offset="0%" stop-color="#2a2a2a"/><stop offset="100%" stop-color="#050505"/></radialGradient>
</defs>
<g>
  <animateTransform attributeName="transform" type="translate"
    values="25,7020; 25,50; 25,7020"
    keyTimes="0;0.5;1"
    dur="30s" repeatCount="indefinite" calcMode="spline"
    keySplines="0.4 0 0.6 1;0.4 0 0.6 1"/>
  <g>
    <animateTransform attributeName="transform" type="scale" values="-1,1"/>
    <g>
      <animateTransform attributeName="transform" type="translate" values="0,0;0,-4;0,0" dur="0.38s" repeatCount="indefinite"/>
      <ellipse cx="-7" cy="1" rx="7" ry="2.5" fill="#F4A020">
        <animateTransform attributeName="transform" type="rotate" values="30,-7,1;-35,-7,1;30,-7,1" dur="0.38s" repeatCount="indefinite"/>
      </ellipse>
      <ellipse cx="7" cy="1" rx="7" ry="2.5" fill="#F4A020">
        <animateTransform attributeName="transform" type="rotate" values="-30,7,1;35,7,1;-30,7,1" dur="0.38s" repeatCount="indefinite"/>
      </ellipse>
      <ellipse cx="0" cy="-22" rx="10" ry="16" fill="url(#gbr)"/>
      <ellipse cx="0" cy="-21" rx="6" ry="11" fill="url(#gwr)"/>
      <ellipse cx="-10" cy="-22" rx="4" ry="9" fill="#0b0b0b">
        <animateTransform attributeName="transform" type="rotate" values="-10,-10,-22;20,-10,-22;-10,-10,-22" dur="0.38s" repeatCount="indefinite"/>
      </ellipse>
      <ellipse cx="10" cy="-22" rx="4" ry="9" fill="#0b0b0b">
        <animateTransform attributeName="transform" type="rotate" values="10,10,-22;-20,10,-22;10,10,-22" dur="0.38s" repeatCount="indefinite"/>
      </ellipse>
      <circle cx="0" cy="-43" r="10" fill="url(#ghr)"/>
      <ellipse cx="0" cy="-41" rx="6.5" ry="8" fill="url(#gwr)"/>
      <circle cx="-4" cy="-45" r="3" fill="url(#ger)"/>
      <circle cx="4" cy="-45" r="3" fill="url(#ger)"/>
      <circle cx="-3.5" cy="-45" r="1.5" fill="#0e0e0e"/>
      <circle cx="4.5" cy="-45" r="1.5" fill="#0e0e0e"/>
      <circle cx="-4.5" cy="-46" r="0.8" fill="white" opacity="0.9"/>
      <circle cx="3.5" cy="-46" r="0.8" fill="white" opacity="0.9"/>
      <path d="M-3,-36 Q0,-33 3,-36 Q1.5,-31 0,-30 Q-1.5,-31 -3,-36Z" fill="#F4A020"/>
      <ellipse cx="-7" cy="-43" rx="2.2" ry="1.5" fill="rgba(255,95,85,0.3)"/>
      <ellipse cx="7" cy="-43" rx="2.2" ry="1.5" fill="rgba(255,95,85,0.3)"/>
    </g>
  </g>
</g>
</svg>
